<?xml version="1.0" encoding="UTF-8"?>
<svg xmlns="http://www.w3.org/2000/svg" viewBox="140 160 220 220">
<path d="M167 198.15C167 206.66 167 215.17 167 223.69C184.51 223.69 202.02 223.69 219.53 223.69C219.53 241.22 219.53 258.76 219.53 276.29C210.77 276.29 202.01 276.29 193.25 276.29C191.05 268.08 194.74 258.66 192.74 250.46C192.16 248.07 188.25 245.41 186.53 243.72C181.96 239.2 172.02 227.07 166.98 224.77C166.98 250.45 166.98 276.14 166.98 301.83C179.22 303.36 192.4 302.05 204.75 302.05C208.08 302.05 216.84 303.06 219.52 301.75C222.29 300.41 225.02 296.56 227.01 294.28C230.74 290.05 235.16 286.37 239.13 282.37C240.95 280.55 244.56 278.11 245.27 275.55C246.65 270.55 245.41 252.12 245.41 245.75C245.41 240.99 246.61 227.83 245.23 224.02C244.28 221.38 240.17 219.04 238.29 216.96C235.1 213.42 223.19 200.23 219.9 198.35C217.48 196.97 208.39 197.93 205.25 197.93C192.76 197.95 179.36 196.55 167 198.15ZM254.84 301.75C258.76 302.58 263.23 302.04 267.25 302.04C275.92 302.04 284.58 302.03 293.25 302.05C296.18 302.06 305.24 302.97 307.44 301.67C311.35 299.35 321.59 287.33 325.63 283.38C327.6 281.46 331.8 278.59 332.73 275.99C334.14 272.01 332.93 259.14 332.94 254.25C332.94 247.25 332.95 240.25 332.94 233.25C332.94 230.55 333.7 226.48 332.76 223.94C331.86 221.53 327.76 218.63 325.88 216.86C321.44 212.66 317.22 208.18 312.89 203.86C311.31 202.27 309.16 199.06 307.11 198.19C303.97 196.88 295.45 197.93 291.75 197.93C281.37 197.93 264.12 196.48 254.56 198.25C254.56 206.73 254.56 215.2 254.56 223.68C272.08 223.68 289.59 223.68 307.11 223.68C307.11 241.22 307.11 258.76 307.11 276.29C298.32 276.29 289.54 276.29 280.75 276.29C279.54 268.94 282.16 256.67 280.33 250.37C279.57 247.71 275.22 244.88 273.32 242.94C267.48 236.98 261.7 230.21 255.25 224.96C253.49 227.16 254.53 240.16 254.53 243.75C254.53 256.92 254.54 270.08 254.54 283.25C254.54 288.94 253.31 296.3 254.84 301.75Z" fill="#fff"/>
<path d="M167 198.15C179.36 196.55 192.76 197.95 205.25 197.93C208.39 197.93 217.48 196.97 219.9 198.35C223.19 200.23 235.1 213.42 238.29 216.96C240.17 219.04 244.28 221.38 245.23 224.02C246.61 227.83 245.41 240.99 245.41 245.75C245.41 252.12 246.65 270.55 245.27 275.55C244.56 278.11 240.95 280.55 239.13 282.37C235.16 286.37 230.74 290.05 227.01 294.28C225.02 296.56 222.29 300.41 219.52 301.75C216.84 303.06 208.08 302.05 204.75 302.05C192.4 302.05 179.22 303.36 166.98 301.83C166.98 276.14 166.98 250.45 166.98 224.77C172.02 227.07 181.96 239.2 186.53 243.72C188.25 245.41 192.16 248.07 192.74 250.46C194.74 258.66 191.05 268.08 193.25 276.29C202.01 276.29 210.77 276.29 219.53 276.29C219.53 258.76 219.53 241.22 219.53 223.69C202.02 223.69 184.51 223.69 167 223.69C167 215.17 167 206.66 167 198.15ZM254.84 301.75C253.31 296.3 254.54 288.94 254.54 283.25C254.54 270.08 254.53 256.92 254.53 243.75C254.53 240.16 253.49 227.16 255.25 224.96C261.7 230.21 267.48 236.98 273.32 242.94C275.22 244.88 279.57 247.71 280.33 250.37C282.16 256.67 279.54 268.94 280.75 276.29C289.54 276.29 298.32 276.29 307.11 276.29C307.11 258.76 307.11 241.22 307.11 223.68C289.59 223.68 272.08 223.68 254.56 223.68C254.56 215.2 254.56 206.73 254.56 198.25C264.12 196.48 281.37 197.93 291.75 197.93C295.45 197.93 303.97 196.88 307.11 198.19C309.16 199.06 311.31 202.27 312.89 203.86C317.22 208.18 321.44 212.66 325.88 216.86C327.76 218.63 331.86 221.53 332.76 223.94C333.7 226.48 332.94 230.55 332.94 233.25C332.95 240.25 332.94 247.25 332.94 254.25C332.93 259.14 334.14 272.01 332.73 275.99C331.8 278.59 327.6 281.46 325.63 283.38C321.59 287.33 311.35 299.35 307.44 301.67C305.24 302.97 296.18 302.06 293.25 302.05C284.58 302.03 275.92 302.04 267.25 302.04C263.23 302.04 258.76 302.58 254.84 301.75Z" fill="#fff"/>
</svg>