<?xml version="1.0" encoding="UTF-8"?>
<svg version="1.1" xmlns="http://www.w3.org/2000/svg" width="360" height="360">
<path d="M0 0 C7.33762614 -0.09340751 14.67512043 -0.16411846 22.0132246 -0.20724869 C25.42203727 -0.22796765 28.83043799 -0.2559899 32.23901367 -0.30175781 C36.1736121 -0.35424748 40.10805409 -0.3730748 44.04296875 -0.390625 C45.84534248 -0.42159271 45.84534248 -0.42159271 47.68412781 -0.45318604 C63.16386211 -0.45721699 77.14733332 4.79055548 88.25 15.625 C95.84063567 23.36691587 101.36075449 32.42271608 104 43 C104.18433594 43.72832031 104.36867188 44.45664063 104.55859375 45.20703125 C106.0410528 54.58719247 106.18486603 65.99451675 103 75 C102.63261719 76.04414063 102.63261719 76.04414063 102.2578125 77.109375 C96.0045109 92.71495953 84.98943679 103.55315501 69.984375 110.84375 C61.58629065 114.09745807 54.03175234 114.26789571 45.09375 114.1953125 C43.75997125 114.19157544 42.42618972 114.18873175 41.09240723 114.18673706 C37.60717999 114.17915506 34.1221234 114.15955436 30.63696289 114.1373291 C27.07049873 114.11675256 23.5040066 114.10771027 19.9375 114.09765625 C12.9582568 114.07630243 5.9791542 114.04116561 -1 114 C-1 108.72 -1 103.44 -1 98 C-0.34 98 0.32 98 1 98 C1.23589844 97.41863281 1.47179687 96.83726562 1.71484375 96.23828125 C3.27114134 93.52776904 5.1436363 92.15598137 7.5625 90.1875 C11.96587354 85.98171373 12.84661415 82.79538661 13.0625 76.9375 C13.08296463 74.62499671 13.07613111 72.31134038 13 70 C14.485 69.505 14.485 69.505 16 69 C16.68486725 67.67592331 17.34870203 66.34090759 18 65 C20 62.75 20 62.75 22 61 C22.66 61 23.32 61 24 61 C24.79953138 57.71303767 25.09658936 56.28976808 24 53 C22.67592331 52.31513275 21.34090759 51.65129797 20 51 C17.75 49 17.75 49 16 47 C16 46.34 16 45.68 16 45 C14.515 44.505 14.515 44.505 13 44 C12.93941406 42.95199219 12.87882813 41.90398437 12.81640625 40.82421875 C12.73198262 39.44529952 12.64733553 38.06639395 12.5625 36.6875 C12.52318359 35.99720703 12.48386719 35.30691406 12.44335938 34.59570312 C12.25072585 31.52838465 11.97677283 28.93031848 11 26 C10.34 26 9.68 26 9 26 C6.875 24.125 6.875 24.125 5 22 C5 21.34 5 20.68 5 20 C4.01 19.67 3.02 19.34 2 19 C2 18.34 2 17.68 2 17 C1.01 16.67 0.02 16.34 -1 16 C-1.02692484 13.70839681 -1.04636124 11.41670454 -1.0625 9.125 C-1.07410156 7.84882813 -1.08570312 6.57265625 -1.09765625 5.2578125 C-1 2 -1 2 0 0 Z M14 16 C13.90148829 17.83115883 13.87027371 19.66619933 13.875 21.5 C13.87242187 22.5003125 13.86984375 23.500625 13.8671875 24.53125 C13.72129618 26.94399622 13.72129618 26.94399622 15 28 C17.68130847 28.11097309 20.34113501 28.16166962 23.0234375 28.17578125 C24.70183498 28.19901378 26.38022039 28.22313241 28.05859375 28.24804688 C30.70238916 28.28290422 33.34575085 28.31234979 35.98974609 28.32592773 C58.53396436 28.46435341 58.53396436 28.46435341 66.9375 35.4375 C67.618125 36.283125 68.29875 37.12875 69 38 C69.70125 38.763125 70.4025 39.52625 71.125 40.3125 C75.87238841 47.11709006 76.85437741 53.79563607 76 62 C74.70365163 68.32095446 72.04559425 73.02080708 68 78 C67.01 78.495 67.01 78.495 66 79 C66 79.66 66 80.32 66 81 C64 81.66666667 62 82.33333333 60 83 C59.12770752 83.34538818 58.25541504 83.69077637 57.35668945 84.04663086 C53.14301299 85.24340201 49.27618384 85.33412979 44.91796875 85.37890625 C44.06318436 85.39590073 43.20839996 85.4128952 42.32771301 85.43040466 C39.61438243 85.48327575 36.901066 85.52374509 34.1875 85.5625 C31.45615436 85.60641077 28.7249271 85.65301948 25.99372864 85.70530701 C24.29776456 85.73730633 22.60169486 85.76418323 20.90556335 85.78553772 C17.14564883 85.49266818 17.14564883 85.49266818 14 87 C13.92755947 89.01964199 13.91622812 91.04167124 13.9375 93.0625 C13.94652344 94.16722656 13.95554688 95.27195312 13.96484375 96.41015625 C13.97644531 97.26480469 13.98804688 98.11945313 14 99 C19.45852509 99.09998003 24.91650004 99.17198513 30.37573242 99.21972656 C32.22706403 99.23965928 34.07833421 99.26681568 35.92944336 99.30175781 C51.3570913 99.58536962 64.0843835 98.98745269 76 88 C76.886875 87.236875 77.77375 86.47375 78.6875 85.6875 C85.98315069 77.20877082 90.86662058 66.51777441 90.27734375 55.109375 C88.71515503 43.22793967 84.57940556 32.46802172 75.25 24.5625 C65.68558895 17.55346595 56.67487386 14.83855015 45.015625 14.8671875 C44.15942566 14.86623077 43.30322632 14.86527405 42.42108154 14.86428833 C40.61909918 14.86360992 38.81711434 14.86544051 37.01513672 14.86962891 C34.2457132 14.87500833 31.47644992 14.86965901 28.70703125 14.86328125 C26.95572881 14.86394158 25.20442646 14.86522179 23.453125 14.8671875 C22.62089417 14.86516327 21.78866333 14.86313904 20.93121338 14.86105347 C17.15972692 14.50988237 17.15972692 14.50988237 14 16 Z M28 44 C27.74698761 48.13962283 27.81477451 52.29105996 27.8125 56.4375 C27.80025391 57.60861328 27.78800781 58.77972656 27.77539062 59.98632812 C27.77345703 61.10330078 27.77152344 62.22027344 27.76953125 63.37109375 C27.76542236 64.40161865 27.76131348 65.43214355 27.75708008 66.49389648 C27.74874932 69.17247404 27.74874932 69.17247404 30 71 C33.20677152 71.47730558 36.4492397 71.37039038 39.6875 71.375 C41.0168457 71.41173828 41.0168457 71.41173828 42.37304688 71.44921875 C48.46872953 71.47629062 52.02227905 70.56197954 57 67 C59.83389466 63.73012154 60.90001547 61.79987626 61.4375 57.5 C60.81329708 52.50637663 59.27403083 49.42845881 55.9375 45.6875 C50.71388729 42.68670121 32.30246617 39.69753383 28 44 Z " fill="#F8F9F9" transform="translate(128,123)"/>
<path d="M0 0 C6.56164011 8.19826166 8.9189696 15.52666389 8 26 C6.74076033 32.58190821 3.69779213 38.19752169 -1 43 C-1.66 43 -2.32 43 -3 43 C-3 43.66 -3 44.32 -3 45 C-4.20268681 45.65628849 -5.41252554 46.29947505 -6.625 46.9375 C-7.63433594 47.47697266 -7.63433594 47.47697266 -8.6640625 48.02734375 C-14.257721 50.3564758 -19.96631551 50.07931628 -25.8984375 49.87890625 C-26.73339752 49.85529526 -27.56835754 49.83168427 -28.42861938 49.80735779 C-31.07760691 49.73120145 -33.72626594 49.64697262 -36.375 49.5625 C-38.17836971 49.50923113 -39.98175512 49.45649112 -41.78515625 49.40429688 C-46.19030949 49.2756519 -50.59518627 49.13976996 -55 49 C-55.04732307 46.74238909 -55.08122626 44.48449389 -55.109375 42.2265625 C-55.12967773 40.96924316 -55.14998047 39.71192383 -55.17089844 38.41650391 C-54.9416591 33.83368216 -54.10921063 32.28194455 -51 29 C-50.29875 28.21625 -49.5975 27.4325 -48.875 26.625 C-47 25 -47 25 -45 25 C-44.20046862 21.71303767 -43.90341064 20.28976808 -45 17 C-46.32407669 16.31513275 -47.65909241 15.65129797 -49 15 C-51.25 13 -51.25 13 -53 11 C-53 10.34 -53 9.68 -53 9 C-53.66 8.67 -54.32 8.34 -55 8 C-55 3.05 -55 -1.9 -55 -7 C-49.77192516 -7.21889065 -44.54363651 -7.41535645 -39.31396484 -7.59204102 C-37.53900215 -7.65505267 -35.76423719 -7.72394327 -33.98974609 -7.79907227 C-8.93680802 -8.84940647 -8.93680802 -8.84940647 0 0 Z M-41 8 C-41.25301239 12.13962283 -41.18522549 16.29105996 -41.1875 20.4375 C-41.19974609 21.60861328 -41.21199219 22.77972656 -41.22460938 23.98632812 C-41.22654297 25.10330078 -41.22847656 26.22027344 -41.23046875 27.37109375 C-41.23457764 28.40161865 -41.23868652 29.43214355 -41.24291992 30.49389648 C-41.25125068 33.17247404 -41.25125068 33.17247404 -39 35 C-35.79322848 35.47730558 -32.5507603 35.37039038 -29.3125 35.375 C-27.9831543 35.41173828 -27.9831543 35.41173828 -26.62695312 35.44921875 C-20.53127047 35.47629062 -16.97772095 34.56197954 -12 31 C-9.16610534 27.73012154 -8.09998453 25.79987626 -7.5625 21.5 C-8.18670292 16.50637663 -9.72596917 13.42845881 -13.0625 9.6875 C-18.28611271 6.68670121 -36.69753383 3.69753383 -41 8 Z " fill="#FCFCFC" transform="translate(197,159)"/>
<path d="M0 0 C0.66 0.33 1.32 0.66 2 1 C1.67 1.33 1.34 1.66 1 2 C0.67 6.62 0.34 11.24 0 16 C12.54 16 25.08 16 38 16 C38 16.33 38 16.66 38 17 C36.90534424 17.01458252 35.81068848 17.02916504 34.68286133 17.04418945 C30.61043095 17.10228739 26.53854685 17.17951927 22.46655273 17.26245117 C20.70622645 17.29564654 18.94579512 17.32369524 17.18530273 17.34643555 C14.65042475 17.3800812 12.11650477 17.4324006 9.58203125 17.48828125 C8.40674614 17.49786613 8.40674614 17.49786613 7.2077179 17.50764465 C2.61981616 17.63030114 -0.30874236 18.24491541 -4 21 C-4.763125 21.556875 -5.52625 22.11375 -6.3125 22.6875 C-6.869375 23.120625 -7.42625 23.55375 -8 24 C-6.92580166 21.49353721 -6.1050141 20.0856641 -3.96484375 18.33984375 C-1.30418055 15.17138002 -1.36906424 12.27576806 -1.3125 8.3125 C-1.08952703 1.08952703 -1.08952703 1.08952703 0 0 Z " fill="#ADADB2" transform="translate(142,192)"/>
<path d="M0 0 C19.8 0.495 19.8 0.495 40 1 C40 1.33 40 1.66 40 2 C27.46 2 14.92 2 2 2 C2.33 6.95 2.66 11.9 3 17 C2.34 17 1.68 17 1 17 C0.67 11.39 0.34 5.78 0 0 Z " fill="#B8BBC2" transform="translate(140,150)"/>
</svg>
